<svg width="20" height="20" viewBox="0 0 20 20" fill="none" xmlns="http://www.w3.org/2000/svg">
<g clip-path="url(#clip0_108_2)">
<path d="M10.1374 17.5341C8.62356 17.5548 7.13892 17.1169 5.87867 16.2779C4.61843 15.439 3.64158 14.2383 3.07659 12.8337C2.51159 11.4291 2.3849 9.88645 2.71317 8.40852C3.04145 6.93059 3.80931 5.58661 4.9158 4.5533C6.02229 3.51999 7.4156 2.84574 8.91251 2.6192C10.4094 2.39267 11.9398 2.62446 13.3025 3.28409C14.6652 3.94373 15.7964 5.00032 16.5473 6.31494C17.2981 7.62956 17.6336 9.14064 17.5095 10.6495" stroke="black" stroke-opacity="0.35" stroke-width="5"/>
<path d="M17.5 10C17.5 10.9849 17.306 11.9602 16.9291 12.8701C16.5522 13.7801 15.9997 14.6069 15.3033 15.3033C14.6069 15.9997 13.7801 16.5522 12.8701 16.9291C11.9602 17.306 10.9849 17.5 10 17.5" stroke="black" stroke-width="5" stroke-linecap="round" stroke-linejoin="round"/>
</g>
<defs>
<clipPath id="clip0_108_2">
<rect width="20" height="20" fill="white"/>
</clipPath>
</defs>
</svg>
