<svg width="37" height="37" viewBox="0 0 37 37" fill="none" xmlns="http://www.w3.org/2000/svg">
<path d="M10.4062 11.5625L15.0312 15.0312L10.4062 18.5M17.3438 18.5H21.9688M8.09375 31.2188H28.9062C29.8262 31.2188 30.7085 30.8533 31.359 30.2028C32.0095 29.5523 32.375 28.67 32.375 27.75V9.25C32.375 8.33003 32.0095 7.44774 31.359 6.79722C30.7085 6.14671 29.8262 5.78125 28.9062 5.78125H8.09375C7.17378 5.78125 6.29149 6.14671 5.64097 6.79722C4.99046 7.44774 4.625 8.33003 4.625 9.25V27.75C4.625 28.67 4.99046 29.5523 5.64097 30.2028C6.29149 30.8533 7.17378 31.2188 8.09375 31.2188Z" stroke="black" stroke-width="2" stroke-linecap="round" stroke-linejoin="round"/>
</svg>
